<?xml version="1.0" encoding="utf-8"?>
<!-- Generator: Adobe Illustrator 19.0.0, SVG Export Plug-In . SVG Version: 6.00 Build 0)  -->
<svg version="1.1" id="Layer_1" xmlns="http://www.w3.org/2000/svg" xmlns:xlink="http://www.w3.org/1999/xlink" x="0px" y="0px"
	 viewBox="490 -50 1280 400" style="enable-background:new 490 -50 1280 400;" xml:space="preserve">
<style type="text/css">
	.st0{fill:#FFFFFF;}
	.st1{fill:#FFB800;}
</style>
<g>
	<path class="st0" d="M604.2,90c-19.9,5.3-32.9,18.7-38.9,40c-2.4,8.7-2.4,32.3,0.1,42.5c4.6,19.5,16.7,32.7,34.4,37.7
		c12,3.3,33.1,2.4,46.3-2.1l5.4-1.8l0.3-10.7c0.2-9.9,0.1-10.7-1.5-10.2c-11.6,3.5-18.3,4.8-26.3,5.3c-12,0.7-18.7-1.5-24.8-8.1
		c-6.1-6.6-8.4-13.9-9-28.1c-0.5-13.5,0.5-20.2,4.4-28.5c4.3-9.3,10.1-13.9,20.4-16.1c6.5-1.4,15.1,0,25.1,4.1
		c4,1.7,7.6,2.7,7.9,2.3c0.7-0.7,8-18.9,8-19.7c0-0.6-10.2-4.5-16.5-6.2C629.9,87.8,613,87.6,604.2,90z"/>
	<path class="st0" d="M935.2,90c-10,2.6-16.6,6.4-23.8,13.5c-7,6.9-11.6,15.1-14.6,26.4c-2.9,10.6-2.8,32.2,0.1,43.3
		c5,19.3,15.5,31,32.5,36.4c6.7,2.1,10,2.5,19.6,2.5c11.5,0,24.2-1.9,30.8-4.6l3.2-1.4v-10.7c0-9.7-0.1-10.6-1.7-9.9
		c-12,4.7-32,6.8-40,4.1c-14.4-4.8-21.3-19.6-20-43c1.1-21.2,9.2-33.4,24.5-36.7c6.8-1.4,15.9,0.1,25.6,4.2c3.8,1.6,7.3,2.6,7.7,2.2
		c0.8-0.9,7.9-18.3,7.9-19.4c0-0.4-2.8-1.8-6.3-3.2C966.3,87.9,948.6,86.5,935.2,90z"/>
	<path class="st0" d="M1044,89.6c-19.7,4.2-34,18.6-39.1,39.4c-1.9,7.4-1.9,34.6,0,42c5,20.6,19.2,35,38.8,39.6c8.6,2,26,2,34.7,0
		c20.7-4.8,34.6-19.7,39-41.8c2-9.9,2-27.7,0.1-37.6c-3.2-16-13.3-30.5-25.4-36.6C1079.8,88.3,1059.5,86.2,1044,89.6z M1074.7,112
		c6.5,2.8,9.6,6.1,12.7,13c3.8,8.4,4.9,15.9,4.3,29c-0.6,12.4-2.2,18.8-6.6,25.5c-7.5,11.3-25,14.8-38.9,7.8
		c-10.1-5-14.9-15-15.9-32.9c-0.9-16.7,2-28.3,9.3-36.4c4.1-4.5,7.4-6.5,13.1-8C1058.4,108.6,1069.2,109.6,1074.7,112z"/>
	<path class="st0" d="M1550.2,90c-10.1,2.7-16.6,6.4-24,13.7c-6.8,6.7-11.8,15.8-14.9,27.3c-2.5,9.3-2.2,31.6,0.6,42.1
		c5.3,20.5,17.7,33.3,36.5,37.8c11.1,2.7,35.8,0.8,46-3.4l3.6-1.5v-10.6c0-10.5,0-10.5-2.2-9.8c-16,5.1-31.5,6.7-39.7,3.9
		c-13.4-4.4-20.1-17.2-20.1-38.3c0-23.5,8.6-37.9,24.6-41.2c7-1.5,15.3-0.2,25.5,4c4,1.7,7.6,2.7,8,2.3c0.8-0.9,7.9-18.3,7.9-19.4
		c0-0.9-6.6-3.6-15-6.1C1577.1,87.8,1559.6,87.4,1550.2,90z"/>
	<path class="st0" d="M677,150.5V211h13h13v-60.5V90h-13h-13V150.5z"/>
	<path class="st0" d="M718,90.5c0,0.3,33.6,98.6,39.7,116.3l1.5,4.3l14.2-0.3l14.1-0.3l20.6-60l20.6-60l-12.5-0.3
		c-6.9-0.1-12.9,0.1-13.3,0.5c-1.4,1.5-24.7,75.7-27,86c-1.3,5.6-2.4,10.1-2.6,10c-0.1-0.2-1.6-5.7-3.3-12.2
		c-1.7-6.6-7.8-26.9-13.6-45c-5.8-18.2-11-34.5-11.5-36.3l-1.1-3.2h-12.9C723.8,90,718,90.2,718,90.5z"/>
	<path class="st0" d="M844,150.5V211h13h13v-60.5V90h-13h-13V150.5z"/>
	<path class="st0" d="M1144,150.5V211h11.7h11.6l-0.5-46l-0.6-46.1l21.7,37.3c11.9,20.5,23.9,41.2,26.6,46l5,8.7l16.8,0.1h16.7
		v-60.5V90h-12.2h-12.1l0.6,43.3c0.3,23.8,0.9,44.1,1.3,45c0.3,0.9,0.2,1.7-0.2,1.7c-0.5,0-12.7-20.2-27-44.8l-26.2-44.7l-16.6-0.3
		L1144,90V150.5z"/>
	<path class="st0" d="M1283,150.5V211h11.6h11.7l-0.7-42.3c-0.3-23.2-0.9-44-1.2-46.2c-0.5-3.8-0.4-3.9,1.1-2
		c0.8,1.1,13.1,21.9,27.2,46.2l25.7,44.3h16.3h16.3v-60.5V90h-11.7h-11.6l0.5,45.1c0.4,24.8,0.3,44.7-0.1,44.3
		c-0.4-0.5-12.4-20.8-26.6-45.2L1315.7,90h-16.4H1283V150.5z"/>
	<path class="st1" d="M1417,100v10h37h37v-10V90h-37h-37V100z"/>
	<path class="st0" d="M1611,100.5V111h16.5h16.5v50v50h13h13v-50v-50h17h17v-10.5V90h-46.5H1611V100.5z"/>
	<path class="st1" d="M1417,148.5V159h34h34v-10.5V138h-34h-34V148.5z"/>
	<path class="st1" d="M1417,200.5V211h37h37v-10.5V190h-37h-37V200.5z"/>
</g>
</svg>
