<svg width="66" height="70" viewBox="0 0 66 70" fill="none" xmlns="http://www.w3.org/2000/svg">
<path d="M8.12624 0H9.01813C13.2298 0 16.6983 3.38074 16.8965 7.55696C15.0632 9.19761 13.9235 11.5343 13.9235 14.219V18.0969C13.9235 20.1353 14.6172 21.9748 15.7568 23.4663C14.3695 25.7036 11.892 27.2448 9.06768 27.2448H8.17579C3.865 27.2448 0.297436 23.7149 0.297436 19.3398V7.90498C0.247887 3.52989 3.81544 0 8.12624 0Z" fill="#00A850"/>
<path d="M14.9147 18.0471V14.1692C14.9147 9.84386 18.4327 6.31396 22.7435 6.31396C27.0543 6.31396 30.5723 9.84386 30.5723 14.1692V18.0471C30.5723 22.3725 27.0543 25.9024 22.7435 25.9024C18.4327 25.9024 14.9147 22.3725 14.9147 18.0471Z" fill="#9ACA3C"/>
<path d="M26.4596 34.4038C18.3335 34.7519 10.0587 34.8513 0.247963 30.4265V29.0344C1.0903 29.3824 4.06326 30.5259 11.5948 32.1666C20.811 34.1553 32.6037 27.5429 44.7929 29.4322C56.5856 31.222 65.455 43.4026 66 44.1483C65.6532 45.6398 65.1577 47.1314 64.6126 48.5234C62.0856 45.9879 50.6892 35.2987 38.5496 34.4038C34.2388 34.0558 30.2749 34.205 26.4596 34.4038Z" fill="#9ACA3C"/>
<path d="M28.9874 41.1158C12.7352 39.1271 3.07305 36.1938 0.248737 34.2051V31.4707C10.0595 35.7961 18.3343 35.8955 26.4108 35.5475C30.2261 35.3983 34.1405 35.1995 38.4018 35.5475C50.6405 36.4921 62.6314 48.275 64.0684 49.7665C64.0684 49.8162 64.0684 49.8162 64.0684 49.8162C63.0278 52.2026 61.69 54.4399 60.1044 56.528C51.7801 47.4298 39.0955 42.3587 28.9874 41.1158Z" fill="#005837"/>
<path d="M26.2616 45.2921C11.595 43.204 3.36979 38.9283 0.198627 35.7464V35.2493C5.20311 37.8345 14.6175 40.7181 29.0859 42.2593C38.3517 43.2537 51.3336 48.5237 59.4102 57.3733C57.1804 60.1077 54.5543 62.4444 51.5814 64.3833C49.5003 60.2071 41.9192 47.5293 26.2616 45.2921Z" fill="#9ACA3C"/>
<path d="M32.3056 59.113C39.2426 57.9696 44.3957 58.6656 47.22 61.2012C48.8551 62.6927 49.4002 64.4327 49.5488 65.4768C44.7425 68.1615 39.193 69.7524 33.2966 69.7524C23.3867 69.7524 14.5174 65.4271 8.42283 58.5662C12.585 59.8091 20.3642 61.1017 32.3056 59.113Z" fill="#00A1E4"/>
<path d="M16.055 53.6942C19.6226 52.7496 23.6361 51.6558 28.591 50.9598C38.8477 49.4683 43.6045 55.2851 45.1901 57.8207C45.3387 58.0693 45.4873 58.3179 45.6855 58.5664C42.4648 57.1744 38.0549 56.9258 32.4559 57.8704C18.5325 60.2071 10.3568 57.9201 7.23522 56.6772C6.88837 56.2297 6.54153 55.7823 6.24423 55.3348C8.8208 55.5834 12.0911 54.7382 16.055 53.6942Z" fill="#00A1E4"/>
<path d="M13.6263 48.5235C15.7074 48.0761 18.0858 47.5292 21.1578 47.0818C26.9056 46.2366 31.6623 48.0264 34.7344 49.7665C32.8019 49.4682 30.6218 49.4184 28.1443 49.7665C23.1398 50.4625 18.9281 51.606 15.5092 52.5506C10.9507 53.7438 7.58131 54.6387 5.05429 53.9924C4.01375 52.3517 3.17141 50.6116 2.42817 48.8218C6.29302 50.015 9.41464 49.4184 13.6263 48.5235Z" fill="#00A1E4"/>
<path d="M9.51205 44.2978C13.3274 43.9498 17.6382 44.9441 20.7598 45.9384C17.8364 46.3859 15.5075 46.8831 13.6247 47.3305C9.01656 48.3746 6.34089 48.9214 2.03009 47.1316C1.58415 45.839 1.2373 44.4967 0.940008 43.1543C2.82289 43.9498 5.6472 44.6458 9.51205 44.2978Z" fill="#00A1E4"/>
<path d="M10.6543 43.1542C10.1093 43.1542 9.56421 43.1542 9.01917 43.2039C4.80747 43.6016 1.9336 42.5079 0.447119 41.7124C0.199372 40.2706 0.0507269 38.7791 0.00117779 37.2876C2.2309 39.4751 7.23539 41.7621 10.6543 43.1542Z" fill="#00A1E4"/>
<path d="M22.7439 30.4765C23.8339 30.4765 24.7754 29.5816 24.7754 28.4381V21.428C24.7754 20.3343 23.8835 19.3896 22.7439 19.3896C21.6538 19.3896 20.7123 20.2846 20.7123 21.428V28.4381C20.7619 29.5319 21.6538 30.4765 22.7439 30.4765Z" fill="#005837"/>
<path d="M8.22629 30.4763C9.31637 30.4763 10.2578 29.5814 10.2578 28.438V18.9918C10.2578 17.898 9.36592 16.9534 8.22629 16.9534C7.1362 16.9534 6.19476 17.8483 6.19476 18.9918V28.438C6.24431 29.5317 7.1362 30.4763 8.22629 30.4763Z" fill="#005837"/>
</svg>
